<?xml version="1.0" standalone="no"?>
<svg viewBox="0 0 200 200" xmlns="http://www.w3.org/2000/svg">
  <path fill="turquoise" d="M45.6,-78.2C58.8,-71.3,69.1,-58.6,76.1,-44.6C83,-30.5,86.7,-15.3,87.7,0.6C88.6,16.4,86.9,32.8,79.5,46.1C72.2,59.5,59.2,69.8,45,77.3C30.8,84.8,15.4,89.5,-0.4,90.1C-16.2,90.8,-32.4,87.4,-44.2,78.6C-56.1,69.8,-63.7,55.5,-70.3,41.5C-76.8,27.4,-82.3,13.7,-81.5,0.5C-80.6,-12.7,-73.4,-25.5,-65.4,-37C-57.4,-48.6,-48.7,-58.9,-37.7,-67.1C-26.7,-75.2,-13.3,-81,1.4,-83.5C16.2,-85.9,32.4,-85,45.6,-78.2Z" transform="translate(100 100)" />
</svg>
