<?xml version="1.0" encoding="utf-8"?>
<svg viewBox="0 0 56.000011 62.642884" width="56px" height="62.643px" xmlns="http://www.w3.org/2000/svg">
  <g id="g205" transform="matrix(1, 0, 0, 1, -347.14801, -225.249344)">
    <g id="g203">
      <rect style="stroke:#f29c1f;stroke-width:5px;stroke-linecap:round;paint-order:fill" x="7.7589998" y="2.5929999" width="42.979" height="41.804001" rx="0.050000001" ry="0.050000001" transform="matrix(0.999998,0.001766,0,1.000002,345.93369,225.14256)" stroke="none" stroke-width="1" fill="none" id="rect184"/>
      <path d="M 398.838 277.195 L 398.838 287.903 C 398.835 290.855 397.917 293.249 396.783 293.257 L 353.62 293.257 C 352.486 293.249 351.567 290.855 351.564 287.903 L 351.564 277.195 Z" id="Shape" fill="#f29c1f" stroke="none" stroke-width="0.610864" style=""/>
      <polygon id="polygon187" fill="#e57e25" points="403.148,274.195 394.148,262.195 356.148,262.195 347.148,274.195 347.148,279.195 403.148,279.195 " stroke="none" stroke-width="1"/>
      <rect id="Rectangle-path" fill="#d25627" y="274.19501" width="56" height="5" x="347.14801" stroke="none" stroke-width="1"/>
      <path d="m 363.148,270.195 c -0.552,0 -1,-0.448 -1,-1 v -10 c 0,-0.552 0.448,-1 1,-1 0.552,0 1,0.448 1,1 v 10 c 0,0.552 -0.448,1 -1,1 z" id="path190" fill="#d1d4d1" stroke="none" stroke-width="1"/>
      <path d="m 365.148,270.195 h -4 c -0.552,0 -1,-0.448 -1,-1 0,-0.552 0.448,-1 1,-1 h 4 c 0.552,0 1,0.448 1,1 0,0.552 -0.448,1 -1,1 z" id="path192" fill="#bdc3c7" stroke="none" stroke-width="1"/>
      <path d="m 380.148,268.195 v 2 c 0,1.1 -1.79,2 -4,2 -2.21,0 -4,-0.9 -4,-2 v -2 c 0.024,0.396 0.222,0.762 0.54,1 1.008,0.712 2.227,1.064 3.46,1 1.233,0.064 2.452,-0.288 3.46,-1 0.318,-0.238 0.516,-0.604 0.54,-1 z" id="path194" fill="#c03a2b" stroke="none" stroke-width="1"/>
      <path d="m 380.148,268.195 c -0.024,0.396 -0.222,0.762 -0.54,1 -1.008,0.712 -2.227,1.064 -3.46,1 -1.233,0.064 -2.452,-0.288 -3.46,-1 -0.318,-0.238 -0.516,-0.604 -0.54,-1 0,-1.1 1.79,-2 4,-2 2.21,0 4,0.9 4,2 z" id="path196" fill="#e64c3c" stroke="none" stroke-width="1"/>
      <path d="m 392.148,268.195 v 2 c 0,1.1 -1.79,2 -4,2 -2.21,0 -4,-0.9 -4,-2 v -2 c 0.024,0.396 0.222,0.762 0.54,1 1.008,0.712 2.227,1.064 3.46,1 1.233,0.064 2.452,-0.288 3.46,-1 0.318,-0.238 0.516,-0.604 0.54,-1 z" id="path198" fill="#c03a2b" stroke="none" stroke-width="1"/>
      <path d="m 392.148,268.195 c -0.024,0.396 -0.222,0.762 -0.54,1 -1.008,0.712 -2.227,1.064 -3.46,1 -1.233,0.064 -2.452,-0.288 -3.46,-1 -0.318,-0.238 -0.516,-0.604 -0.54,-1 0,-1.1 1.79,-2 4,-2 2.21,0 4,0.9 4,2 z" id="path200" fill="#e64c3c" stroke="none" stroke-width="1"/>
      <circle id="Oval" fill="#e64c3c" cx="363.14801" cy="256.19501" r="3" stroke="none" stroke-width="1"/>
    </g>
  </g>
</svg>