<?xml version="1.0" encoding="UTF-8"?>
<svg width="58px" height="55px" viewBox="0 0 58 55" version="1.1" xmlns="http://www.w3.org/2000/svg" xmlns:xlink="http://www.w3.org/1999/xlink">
    <!-- Generator: Sketch 51.3 (57544) - http://www.bohemiancoding.com/sketch -->
    <title>018 - Astronaut</title>
    <desc>Created with Sketch.</desc>
    <defs></defs>
    <g id="Page-1" stroke="none" stroke-width="1" fill="none" fill-rule="evenodd">
        <g id="018---Astronaut" fill-rule="nonzero">
            <path d="M17,9.00000869 L7.21,9 C7.00814563,9.00118573 6.82537736,8.88087959 6.74665413,8.69500531 C6.66793091,8.50913103 6.70869602,8.29415193 6.85,8.15 L9.65,5.35 C9.84057144,5.15557824 9.84057144,4.84442176 9.65,4.65 L6.85,1.85 C6.70869602,1.70584807 6.66793091,1.49086897 6.74665413,1.30499469 C6.82537736,1.11912041 7.00814563,0.998814273 7.21,1 L17,0.999991314 L17,9.00000869 Z" id="Shape" fill="#26B99A"></path>
            <path d="M17,14 C16.4477153,14 16,13.5522847 16,13 L16,1 C16,0.44771525 16.4477153,0 17,0 C17.5522847,0 18,0.44771525 18,1 L18,13 C18,13.5522847 17.5522847,14 17,14 Z" id="Shape" fill="#547580"></path>
            <path d="M45.43,29.9 C47.92,31.73 51.43,34.9 52.11,38.64 C52.4686198,40.6607894 51.8911783,42.735165 50.54,44.28 C49.1014578,46.1990129 46.8672677,47.3584361 44.47,47.43 C42.0205178,47.2949899 39.6942697,46.3121678 37.89,44.65 L40.2,41.34 C40.6035566,41.7061154 41.0348446,42.0404471 41.49,42.34 C42.3644944,42.9825823 43.4065907,43.3577369 44.49,43.42 C45.6972066,43.3332252 46.8002058,42.7045157 47.49,41.71 C48.0904106,41.0739823 48.3538159,40.191018 48.2,39.33 C47.82,37.35 45,34.56 43,33 L45.43,29.9 Z" id="Shape" fill="#2C3E50"></path>
            <path d="M19.88,39.63 C17.69,38.63 13.41,37.93 8.5,41 L7.44,41.64 C6.72329191,42.0710895 5.85916227,42.1834194 5.05605946,41.9498931 C4.25295665,41.7163667 3.58379789,41.158187 3.21,40.41 L0.37,34.75 C0.12156714,34.2468025 0.0959721181,33.6623806 0.299462648,33.1393909 C0.502953178,32.6164012 0.91680594,32.2029645 1.44,32 C5.94,30.34 7.5,35 7.5,35 C11.4576172,31.4174615 16.9412495,30.0446781 22.12,31.34 L23,39 L19.88,39.63 Z" id="Shape" fill="#E57E25"></path>
            <path d="M33,43.48 L35.27,44.62 C35.9971205,44.9843008 36.8409895,45.0377824 37.6082839,44.7681925 C38.3755782,44.4986026 39.0005415,43.9290448 39.34,43.19 L40.19,41.34 L43.75,33.63 L45.47,29.9 L45.56,29.72 L45.65,29.53 L48.32,23.72 L48.74,22.8 C49.074848,22.0664226 49.1002752,21.2289295 48.8105472,20.4763893 C48.5208193,19.7238491 47.9403338,19.1196324 47.2,18.8 L43,17 L33,43.48 Z" id="Shape" fill="#35495E"></path>
            <path d="M30,19 L22.64,20.56 L19.64,14.66 C18.8549719,13.266742 17.1150587,12.7341999 15.6846917,13.4493834 C14.2543247,14.1645669 13.6364104,15.8760227 14.28,17.34 L18.28,25.34 C18.793571,26.3689186 19.8501129,27.0137199 21,27 C21.2185952,27.0009039 21.4366094,26.9774254 21.65,26.93 L24.08,26.39 L30,19 Z" id="Shape" fill="#E57E25"></path>
            <path d="M42.82,20.63 L42.92,20.7 L45.79,23.08 C46.4763741,23.6669041 47.395689,23.9031939 48.28,23.72 C48.5773758,23.6602316 48.8639676,23.5557098 49.13,23.41 L53.55,21.41 C54.9945052,20.6790575 56.7584095,21.226054 57.5358971,22.6460487 C58.3133848,24.0660435 57.8239851,25.8467882 56.43,26.67 L52,28.68 C50.6751573,29.4046174 49.1900543,29.7862064 47.68,29.79 C46.9750535,29.7935325 46.2725942,29.7061452 45.59,29.53 C44.2712349,29.2183643 43.0425004,28.6057084 42,27.74 C39.83,30.12 37.5,33.43 37,37 C36.42,41.07 34.48,42.78 33,43.48 C32.3768169,43.7907116 31.6956032,43.9678271 31,44 C31,44 22.5,44 20,51 L19.51,52.14 C19.1778641,52.908585 18.5396469,53.5033994 17.7496107,53.7806717 C16.9595745,54.057944 16.089612,53.9924427 15.35,53.6 L9.75,50.6 C9.25445547,50.338724 8.89120663,49.8815919 8.74863823,49.339832 C8.60606984,48.7980721 8.69725254,48.2213529 9,47.75 C11.73,43.44 16,47 16,47 C17,41 20.93,38.77 20.93,38.77 C20.9218422,36.2452445 21.3237396,33.7359186 22.12,31.34 C22.673162,29.6301431 23.3413539,27.9596632 24.12,26.34 C25.2421687,23.9670647 26.539071,21.6807731 28,19.5 L42.82,20.63 Z" id="Shape" fill="#F29C1F"></path>
            <path d="M47,12 C47.0000001,15.9299215 44.9034119,19.5613188 41.5000001,21.5262796 C38.0965882,23.4912404 33.9034118,23.4912404 30.4999999,21.5262796 C27.0965881,19.5613188 24.9999999,15.9299215 25,12 C24.9963064,11.6659599 25.0130041,11.3320057 25.05,11 C25.4399673,5.22571479 30.2375615,0.741198354 36.025,0.741198354 C41.8124385,0.741198354 46.6100327,5.22571479 47,11 C47,11.33 47,11.66 47,12 Z" id="Shape" fill="#E57E25"></path>
            <path d="M47,11 C46.5812421,16.0478211 42.7696564,20.1571648 37.7675202,20.9537134 C32.7653841,21.7502621 27.8659343,19.0280786 25.9,14.36 C25.436292,13.2935191 25.1492075,12.1586909 25.05,11 C25.4399673,5.22571479 30.2375615,0.741198354 36.025,0.741198354 C41.8124385,0.741198354 46.6100327,5.22571479 47,11 Z" id="Shape" fill="#F29C1F"></path>
            <path d="M6,24 C5.44771525,24 5,23.5522847 5,23 L5,19 C5,18.4477153 5.44771525,18 6,18 C6.55228475,18 7,18.4477153 7,19 L7,23 C7,23.5522847 6.55228475,24 6,24 Z" id="Shape" fill="#F0C419"></path>
            <path d="M8,22 L4,22 C3.44771525,22 3,21.5522847 3,21 C3,20.4477153 3.44771525,20 4,20 L8,20 C8.55228475,20 9,20.4477153 9,21 C9,21.5522847 8.55228475,22 8,22 Z" id="Shape" fill="#F0C419"></path>
            <path d="M31,55 C30.4477153,55 30,54.5522847 30,54 L30,50 C30,49.4477153 30.4477153,49 31,49 C31.5522847,49 32,49.4477153 32,50 L32,54 C32,54.5522847 31.5522847,55 31,55 Z" id="Shape" fill="#F0C419"></path>
            <path d="M33,53 L29,53 C28.4477153,53 28,52.5522847 28,52 C28,51.4477153 28.4477153,51 29,51 L33,51 C33.5522847,51 34,51.4477153 34,52 C34,52.5522847 33.5522847,53 33,53 Z" id="Shape" fill="#F0C419"></path>
            <path d="M52,6 C51.4477153,6 51,5.55228475 51,5 L51,1 C51,0.44771525 51.4477153,0 52,0 C52.5522847,0 53,0.44771525 53,1 L53,5 C53,5.55228475 52.5522847,6 52,6 Z" id="Shape" fill="#F0C419"></path>
            <path d="M54,4 L50,4 C49.4477153,4 49,3.55228475 49,3 C49,2.44771525 49.4477153,2 50,2 L54,2 C54.5522847,2 55,2.44771525 55,3 C55,3.55228475 54.5522847,4 54,4 Z" id="Shape" fill="#F0C419"></path>
            <path d="M42,12 C41.9604348,13.6491213 41.2357308,15.2072348 40,16.3 C38.8902233,17.318897 37.5583668,18.0652844 36.11,18.48 C34.9390344,18.8310443 33.7224373,19.0062882 32.5,19 C30.3496987,19.0274937 28.2341505,18.4561918 26.39,17.35 C26.21,17.03 26.05,16.7 25.9,16.35 C25.5467765,15.5442379 25.2948536,14.6977769 25.15,13.83 C25.0497283,13.2251669 24.9995579,12.6130883 25,12 C24.9959419,10.1268562 25.4746688,8.28427447 26.39,6.65 C28.2328943,5.54085657 30.3492984,4.96932353 32.5,5 C35.2496396,4.93067253 37.9254865,5.89397741 40,7.7 C40.2869536,7.97123753 40.551173,8.26555787 40.79,8.58 C41.5602983,9.5549008 41.9858101,10.7575872 42,12 Z" id="Shape" fill="#35495E"></path>
            <path d="M28,13 C27.4477153,13 27,12.5522847 27,12 C27,8 30.92,7 33,7 C33.5522847,7 34,7.44771525 34,8 C34,8.55228475 33.5522847,9 33,9 C32.82,9 29,9.06 29,12 C29,12.5522847 28.5522847,13 28,13 Z" id="Shape" fill="#547580"></path>
            <path d="M42,12 C41.9604348,13.6491213 41.2357308,15.2072348 40,16.3 C38.8902233,17.318897 37.5583668,18.0652844 36.11,18.48 C34.9390344,18.8310443 33.7224373,19.0062882 32.5,19 C30.3496987,19.0274937 28.2341505,18.4561918 26.39,17.35 C26.21,17.03 26.05,16.7 25.9,16.35 C25.5467765,15.5442379 25.2948536,14.6977769 25.15,13.83 C28.83,15.41 35.15,16.35 40.79,8.57 C41.5623841,9.54760218 41.988018,10.754151 42,12 Z" id="Shape" fill="#2C3E50"></path>
            <path d="M9.92,40.2 C9.45,40.44 8.98,40.7 8.5,41 L7.44,41.64 C6.72329191,42.0710895 5.85916227,42.1834194 5.05605946,41.9498931 C4.25295665,41.7163667 3.58379789,41.158187 3.21,40.41 L0.37,34.75 C0.12156714,34.2468025 0.0959721181,33.6623806 0.299462648,33.1393909 C0.502953178,32.6164012 0.91680594,32.2029645 1.44,32 C5.94,30.34 7.5,35 7.5,35 L9.92,40.2 Z" id="Shape" fill="#2C3E50"></path>
            <path d="M20.62,49.63 C20.3754774,50.0685714 20.168087,50.5268373 20,51 L19.52,52.11 C19.1878641,52.878585 18.5496469,53.4733994 17.7596107,53.7506717 C16.9695745,54.027944 16.099612,53.9624427 15.36,53.57 L9.76,50.57 C9.27141671,50.3100228 8.91240414,49.8592108 8.76838712,49.3248318 C8.6243701,48.7904529 8.70822534,48.2202864 9,47.75 C11.73,43.44 16,47 16,47 L20.62,49.63 Z" id="Shape" fill="#35495E"></path>
        </g>
    </g>
</svg>