<?xml version="1.0" encoding="utf-8"?>
<svg viewBox="11.39 8.24 60.677 32" xmlns="http://www.w3.org/2000/svg" xmlns:bx="https://boxy-svg.com">
  <g id="Page-1" stroke="none" stroke-width="1" fill="none" fill-rule="evenodd" transform="matrix(1, 0, 0, 1, 12.06758, 8.209556)">
    <g id="042---Battery-Level" fill="white" fill-rule="nonzero">
      <path d="M 47.061 29.146 L 51.978 53.515 L 42.143 53.515 L 47.061 29.146 Z" style="fill: rgb(227, 73, 73);" transform="matrix(1, 0, 0.201564, 1, -48.695004, -25.523834)" bx:shape="triangle 42.143 29.146 9.835 24.369 0.5 0 1@98636fac"/>
      <path d="M58,9.0251 L53,9.0251 L53,23.0251 L58,23.0251 C59.1045695,23.0251 60,22.1296695 60,21.0251 L60,11.0251 C60,9.9205305 59.1045695,9.0251 58,9.0251 Z" id="Shape" style=""/>
      <path d="M 49 32.03 C 50.103 32.027 50.997 31.133 51 30.03 L 51 2.03 C 51 1.5 50.789 0.991 50.414 0.616 C 50.039 0.241 49.53 0.03 49 0.03 L 2 0.03 C 1.47 0.03 0.961 0.241 0.586 0.616 C 0.211 0.991 0 1.5 0 2.03 L 0 30.03 C 0.003 31.133 0.897 32.027 2 32.03 L 49 32.03 Z M 46 4 C 46 3.448 46.448 3 47 3 C 47.552 3 48 3.448 48 4 L 48 5 C 48 5.552 47.552 6 47 6 C 46.448 6 46 5.552 46 5 L 46 4 Z M 46 9 C 46 8.448 46.448 8 47 8 C 47.552 8 48 8.448 48 9 L 48 28 C 48 28.552 47.552 29 47 29 C 46.448 29 46 28.552 46 28 L 46 9 Z M 43.419 4 L 43.603 28 L 4.438 28 L 4.32 3.938 L 43.419 4 Z" id="Shape" style=""/>
    </g>
  </g>
</svg>