<?xml version="1.0" encoding="UTF-8"?>
<svg width="58px" height="50px" viewBox="0 0 58 50" version="1.1" xmlns="http://www.w3.org/2000/svg" xmlns:xlink="http://www.w3.org/1999/xlink">
    <!-- Generator: Sketch 51.1 (57501) - http://www.bohemiancoding.com/sketch -->
    <title>035 - SLR Camera</title>
    <desc>Created with Sketch.</desc>
    <defs></defs>
    <g id="Page-1" stroke="none" stroke-width="1" fill="none" fill-rule="evenodd">
        <g id="035---SLR-Camera" fill-rule="nonzero">
            <path d="M15,7 L-0.000195201337,7 L-7.29803587e-16,47 C-0.00200134403,47.1642242 0.0113905288,47.3282746 0.04,47.49 C0.279749098,48.9381398 1.53214835,50.0001405 3,50 L12,50 C13.6568542,50 15,48.6568542 15,47 L56,47 C57.1032019,46.9967052 57.9967052,46.1032019 58,45 L58,7 L15,7 Z" id="Shape" fill="#41767F"></path>
            <path d="M15,46 L14.87,46.98 L15,47 C15,48.6568542 13.6568542,50 12,50 L3,50 C1.53214835,50.0001405 0.279749098,48.9381398 0.04,47.49 C0.0113905288,47.3282746 -0.00200134403,47.1642242 1.45716772e-16,47 L1.45716772e-16,14 C2.56739074e-16,15.6568542 1.34314575,17 3,17 L12,17 C13.6568542,17 15,15.6568542 15,14 L15,46 Z" id="Shape" fill="#3F5C6C"></path>
            <path d="M15,9 L15,14 C15,15.6568542 13.6568542,17 12,17 L3,17 C1.34314575,17 2.22044605e-16,15.6568542 0,14 L0,9 L15,9 Z" id="Shape" fill="#35495E"></path>
            <path d="M20,14 L19,14 C18.4477153,14 18,13.5522847 18,13 C18,12.4477153 18.4477153,12 19,12 L20,12 C20.5522847,12 21,12.4477153 21,13 C21,13.5522847 20.5522847,14 20,14 Z" id="Shape" fill="#FF5364"></path>
            <circle id="Oval" fill="#ECF0F1" cx="8" cy="11" r="2"></circle>
            <path d="M13,3 L56,3 C57.1032019,3.0032948 57.9967052,3.89679813 58,5 L58,9 L0,9 L0,5 C0.00329480111,3.89679813 0.896798134,3.0032948 2,3 L13,3 Z" id="Shape" fill="#3F5C6C"></path>
            <path d="M13,5 L13,2 C13,0.8954305 12.1045695,0 11,0 L6,0 C4.8954305,0 4,0.8954305 4,2 L4,5 L13,5 Z" id="Shape" fill="#41767F"></path>
            <path d="M3,22 C3,22.5522847 2.55228475,23 2,23 C1.29741117,22.9992727 0.607477731,22.8129906 1.11022302e-15,22.46 L1.11022302e-15,19 C0.00329480111,20.1032019 0.896798134,20.9967052 2,21 C2.55228475,21 3,21.4477153 3,22 Z" id="Shape" fill="#41767F"></path>
            <path d="M3,28 C3,28.5522847 2.55228475,29 2,29 C1.29741117,28.9992727 0.607477731,28.8129906 -2.22044605e-16,28.46 L-2.22044605e-16,25 C0.00329480111,26.1032019 0.896798134,26.9967052 2,27 C2.55228475,27 3,27.4477153 3,28 Z" id="Shape" fill="#41767F"></path>
            <path d="M3,34 C3,34.5522847 2.55228475,35 2,35 C1.29741117,34.9992727 0.607477731,34.8129906 -2.22044605e-16,34.46 L-2.22044605e-16,31 C0.00329480111,32.1032019 0.896798134,32.9967052 2,33 C2.55228475,33 3,33.4477153 3,34 Z" id="Shape" fill="#41767F"></path>
            <path d="M3,40 C3,40.5522847 2.55228475,41 2,41 C1.29741117,40.9992727 0.607477731,40.8129906 -6.66133815e-16,40.46 L-6.66133815e-16,37 C0.00329480111,38.1032019 0.896798134,38.9967052 2,39 C2.26521649,39 2.5195704,39.1053568 2.70710678,39.2928932 C2.89464316,39.4804296 3,39.7347835 3,40 Z" id="Shape" fill="#41767F"></path>
            <path d="M3,46 C3,46.5522847 2.55228475,47 2,47 C1.31405218,46.9984723 0.639696767,46.8230023 0.04,46.49 C0.0113905288,46.3282746 -0.00200134403,46.1642242 -7.63007279e-17,46 L-7.63007279e-17,43 C0.00329480111,44.1032019 0.896798134,44.9967052 2,45 C2.55228475,45 3,45.4477153 3,46 Z" id="Shape" fill="#41767F"></path>
            <circle id="Oval" fill="#D1D4D1" cx="39" cy="28" r="19"></circle>
            <circle id="Oval" fill="#BDC3C7" cx="39" cy="28" r="15"></circle>
            <path d="M37.12,38.85 L35.27,42.54 C29.9738505,41.1656345 25.8394633,37.0274192 24.47,31.73 L28.15,29.88 L37.12,38.85 Z" id="Shape" fill="#95A5A5"></path>
            <path d="M49.85,26.12 L47.36,27.36 C46.5880744,27.74108 45.6591748,27.588274 45.05,26.98 L42.54,24.46 L40.02,21.95 C39.411726,21.3408252 39.25892,20.4119256 39.64,19.64 L40.88,17.15 L49.85,26.12 Z" id="Shape" fill="#7F8C8D"></path>
            <path d="M53.53,24.27 L49.85,26.12 L40.88,17.15 L42.73,13.46 C48.0261495,14.8343655 52.1605367,18.9725808 53.53,24.27 Z" id="Shape" fill="#95A5A5"></path>
            <path d="M38.36,36.36 L37.12,38.85 L28.15,29.88 L30.64,28.64 C31.4119256,28.25892 32.3408252,28.411726 32.95,29.02 L35.46,31.54 L37.98,34.05 C38.588274,34.6591748 38.74108,35.5880744 38.36,36.36 Z" id="Shape" fill="#7F8C8D"></path>
        </g>
    </g>
</svg>