<?xml version="1.0" encoding="UTF-8"?>
<svg width="36px" height="58px" viewBox="0 0 36 58" version="1.1" xmlns="http://www.w3.org/2000/svg" xmlns:xlink="http://www.w3.org/1999/xlink">
    <!-- Generator: Sketch 51.3 (57544) - http://www.bohemiancoding.com/sketch -->
    <title>007 - Nintendo Gameboy</title>
    <desc>Created with Sketch.</desc>
    <defs></defs>
    <g id="Page-1" stroke="none" stroke-width="1" fill="none" fill-rule="evenodd">
        <g id="007---Nintendo-Gameboy" fill-rule="nonzero">
            <path d="M36,2 L36,52 C36,55.3137085 33.3137085,58 30,58 L2,58 C0.896798134,57.9967052 0.00329480111,57.1032019 0,56 L0,2 C0.00329480111,0.896798134 0.896798134,0.00329480111 2,0 L34,0 C35.1032019,0.00329480111 35.9967052,0.896798134 36,2 Z" id="Shape" fill="#EBECED"></path>
            <path d="M18,5 L5,5 C4.44771525,5 4,5.44771525 4,6 L4,26 C4,26.5522847 4.44771525,27 5,27 L26,27 C29.3137085,27 32,24.3137085 32,21 L32,6 C32,5.44771525 31.5522847,5 31,5 L18,5 Z" id="Shape" fill="#586270"></path>
            <circle id="Oval" fill="#C9CED1" cx="9" cy="40" r="6"></circle>
            <rect id="Rectangle-path" fill="#91D4C5" x="9" y="9" width="18" height="14" rx="1"></rect>
            <path d="M17,31 L5,31 C4.44771525,31 4,30.5522847 4,30 C4,29.4477153 4.44771525,29 5,29 L17,29 C17.5522847,29 18,29.4477153 18,30 C18,30.5522847 17.5522847,31 17,31 Z" id="Shape" fill="#5496CE"></path>
            <path d="M9,46 C8.44771525,46 8,45.5522847 8,45 L8,35 C8,34.4477153 8.44771525,34 9,34 C9.55228475,34 10,34.4477153 10,35 L10,45 C10,45.5522847 9.55228475,46 9,46 Z" id="Shape" fill="#586270"></path>
            <path d="M14,41 L4,41 C3.44771525,41 3,40.5522847 3,40 C3,39.4477153 3.44771525,39 4,39 L14,39 C14.5522847,39 15,39.4477153 15,40 C15,40.5522847 14.5522847,41 14,41 Z" id="Shape" fill="#586270"></path>
            <rect id="Rectangle-path" fill="#D8625E" transform="translate(25.879423, 40.878427) rotate(-45.000000) translate(-25.879423, -40.878427) " x="19.8794227" y="37.8784271" width="12" height="6" rx="3"></rect>
            <path d="M13,54 C12.5956041,53.9999137 12.2310659,53.7562725 12.076322,53.3826546 C11.9215781,53.0090366 12.0070921,52.5789943 12.293,52.293 L15.293,49.293 C15.6853789,48.9140278 16.3090848,48.9194476 16.6948186,49.3051814 C17.0805524,49.6909152 17.0859722,50.3146211 16.707,50.707 L13.707,53.707 C13.5195073,53.8945494 13.2651948,53.9999434 13,54 Z" id="Shape" fill="#A5B4B4"></path>
            <path d="M19,54 C18.5956041,53.9999137 18.2310659,53.7562725 18.076322,53.3826546 C17.9215781,53.0090366 18.0070921,52.5789943 18.293,52.293 L21.293,49.293 C21.6853789,48.9140278 22.3090848,48.9194476 22.6948186,49.3051814 C23.0805524,49.6909152 23.0859722,50.3146211 22.707,50.707 L19.707,53.707 C19.5195073,53.8945494 19.2651948,53.9999434 19,54 Z" id="Shape" fill="#A5B4B4"></path>
        </g>
    </g>
</svg>