<?xml version="1.0" encoding="UTF-8"?>
<svg width="58px" height="58px" viewBox="0 0 58 58" version="1.1" xmlns="http://www.w3.org/2000/svg" xmlns:xlink="http://www.w3.org/1999/xlink">
    <!-- Generator: Sketch 51.3 (57544) - http://www.bohemiancoding.com/sketch -->
    <title>020 - Flagged Notes</title>
    <desc>Created with Sketch.</desc>
    <defs></defs>
    <g id="Page-1" stroke="none" stroke-width="1" fill="none" fill-rule="evenodd">
        <g id="020---Flagged-Notes" fill-rule="nonzero">
            <path d="M58,50 L36.27,50 C40.28,50 52.5,49.3 55,40.97 L55.16,40.92 L58,50 Z" id="Shape" fill="#4482C3"></path>
            <path d="M55.16,40.92 L55,40.97 C50.12,44.88 41.42,39.25 41.01,38.98 C42.99,42.98 35,49.97 35,49.97 C35,49.97 35.47,50 36.27,50 L0,50 L9.78,18.7 C9.91168017,18.2812556 10.3010473,17.9973421 10.74,18 L47.26,18 C47.6989527,17.9973421 48.0883198,18.2812556 48.22,18.7 L55.16,40.92 Z" id="Shape" fill="#B0D3F0"></path>
            <path d="M58,50 L58,56 C57.9967052,57.1032019 57.1032019,57.9967052 56,58 L2,58 C0.896798134,57.9967052 0.00329480111,57.1032019 0,56 L0,50 L58,50 Z" id="Shape" fill="#4482C3"></path>
            <path d="M55,40.97 C52.5,49.3 40.28,50 36.27,50 C35.47,50 35,49.97 35,49.97 C35,49.97 42.99,42.98 41.01,38.98 C41.42,39.25 50.12,44.88 55,40.97 Z" id="Shape" fill="#90BAE1"></path>
            <path d="M11,54 C11,54.5522847 10.5522847,55 10,55 L0,55 L0,53 L10,53 C10.5522847,53 11,53.4477153 11,54 Z" id="Shape" fill="#285680"></path>
            <path d="M58,53 L58,55 L19,55 C18.4477153,55 18,54.5522847 18,54 C18,53.4477153 18.4477153,53 19,53 L58,53 Z" id="Shape" fill="#285680"></path>
            <path d="M15,24 L14,24 C13.4477153,24 13,23.5522847 13,23 C13,22.4477153 13.4477153,22 14,22 L15,22 C15.5522847,22 16,22.4477153 16,23 C16,23.5522847 15.5522847,24 15,24 Z" id="Shape" fill="#285680"></path>
            <path d="M27,24 L19,24 C18.4477153,24 18,23.5522847 18,23 C18,22.4477153 18.4477153,22 19,22 L27,22 C27.5522847,22 28,22.4477153 28,23 C28,23.5522847 27.5522847,24 27,24 Z" id="Shape" fill="#285680"></path>
            <path d="M14,29 L13,29 C12.4477153,29 12,28.5522847 12,28 C12,27.4477153 12.4477153,27 13,27 L14,27 C14.5522847,27 15,27.4477153 15,28 C15,28.5522847 14.5522847,29 14,29 Z" id="Shape" fill="#285680"></path>
            <path d="M27,29 L18,29 C17.4477153,29 17,28.5522847 17,28 C17,27.4477153 17.4477153,27 18,27 L27,27 C27.5522847,27 28,27.4477153 28,28 C28,28.5522847 27.5522847,29 27,29 Z" id="Shape" fill="#285680"></path>
            <path d="M13,34 L12,34 C11.4477153,34 11,33.5522847 11,33 C11,32.4477153 11.4477153,32 12,32 L13,32 C13.5522847,32 14,32.4477153 14,33 C14,33.5522847 13.5522847,34 13,34 Z" id="Shape" fill="#285680"></path>
            <path d="M27,34 L17,34 C16.4477153,34 16,33.5522847 16,33 C16,32.4477153 16.4477153,32 17,32 L27,32 C27.5522847,32 28,32.4477153 28,33 C28,33.5522847 27.5522847,34 27,34 Z" id="Shape" fill="#285680"></path>
            <path d="M44,24 L31,24 C30.4477153,24 30,23.5522847 30,23 C30,22.4477153 30.4477153,22 31,22 L44,22 C44.5522847,22 45,22.4477153 45,23 C45,23.5522847 44.5522847,24 44,24 Z" id="Shape" fill="#285680"></path>
            <path d="M45,29 L31,29 C30.4477153,29 30,28.5522847 30,28 C30,27.4477153 30.4477153,27 31,27 L45,27 C45.5522847,27 46,27.4477153 46,28 C46,28.5522847 45.5522847,29 45,29 Z" id="Shape" fill="#285680"></path>
            <path d="M46,34 L31,34 C30.4477153,34 30,33.5522847 30,33 C30,32.4477153 30.4477153,32 31,32 L46,32 C46.5522847,32 47,32.4477153 47,33 C47,33.5522847 46.5522847,34 46,34 Z" id="Shape" fill="#285680"></path>
            <path d="M31,2 L31,40 L27,40 L27,2 C27,0.8954305 27.8954305,2.22044605e-16 29,0 C30.1045695,0 31,0.8954305 31,2 Z" id="Shape" fill="#AF8066"></path>
            <path d="M31,2 L46.98,7.046 C47.3958963,7.17746118 47.678607,7.56332141 47.678607,7.9995 C47.678607,8.43567859 47.3958963,8.82153882 46.98,8.953 L31,14 L31,2 Z" id="Shape" fill="#CC4B4C"></path>
            <path d="M33,41 L25,41 C24.4477153,41 24,40.5522847 24,40 C24,39.4477153 24.4477153,39 25,39 L33,39 C33.5522847,39 34,39.4477153 34,40 C34,40.5522847 33.5522847,41 33,41 Z" id="Shape" fill="#285680"></path>
        </g>
    </g>
</svg>