<?xml version="1.0" encoding="UTF-8" standalone="no"?>
<svg width="50px" height="52px" viewBox="0 0 50 52" version="1.1" xmlns="http://www.w3.org/2000/svg" xmlns:xlink="http://www.w3.org/1999/xlink">
    <!-- Generator: Sketch 40.1 (33804) - http://www.bohemiancoding.com/sketch -->
    <title>276 - Picture (interaction, communication, essential, solid)</title>
    <desc>Created with Sketch.</desc>
    <defs></defs>
    <g id="Page-1" stroke="none" stroke-width="1" fill="none" fill-rule="evenodd">
        <g id="Icons" transform="translate(-605.000000, -1563.000000)" fill="white">
            <g id="Picture" transform="translate(605.000000, 1563.000000)">
                <path d="M13,24.138 C16.071,24.138 18.569,21.64 18.569,18.569 C18.569,15.498 16.071,13 13,13 C9.929,13 7.431,15.498 7.431,18.569 C7.431,21.64 9.929,24.138 13,24.138" id="Fill-857"></path>
                <path d="M0,52 L50,52 L50,0 L0,0 L0,52 Z M2,2 L48,2 L48,29.643 L36.676,19.262 C36.48,19.083 36.222,18.994 35.956,19 C35.69,19.012 35.44,19.129 35.262,19.325 L26.899,28.485 L30.707,32.293 C31.098,32.684 31.098,33.316 30.707,33.707 C30.512,33.902 30.256,34 30,34 C29.744,34 29.488,33.902 29.293,33.707 L25.467,30.052 L20.724,25.31 C20.351,24.937 19.752,24.918 19.356,25.266 L2.621,40 L2,40 L2,2 L2,2 Z M2,42 L48,42 L48,50 L2,50 L2,42 Z" id="Fill-858"></path>
            </g>
        </g>
    </g>
</svg>