<?xml version="1.0" encoding="UTF-8"?>
<svg width="58px" height="58px" viewBox="0 0 58 58" version="1.1" xmlns="http://www.w3.org/2000/svg" xmlns:xlink="http://www.w3.org/1999/xlink">
    <!-- Generator: Sketch 41.1 (35376) - http://www.bohemiancoding.com/sketch -->
    <title>6 -HTML Functions- (development, coding, code, programming, flat)</title>
    <desc>Created with Sketch.</desc>
    <defs></defs>
    <g id="Page-1" stroke="none" stroke-width="1" fill="none" fill-rule="evenodd">
        <g id="Icons" transform="translate(-721.000000, -350.000000)">
            <g id="6--HTML-Functions--(development,-coding,-code,-programming,-flat)" transform="translate(721.000000, 350.000000)">
                <path d="M56,58 L2,58 C0.895,58 0,57.105 0,56 L0,12 L58,12 L58,56 C58,57.105 57.105,58 56,58" id="Fill-67" fill="#E8EDEE"></path>
                <path d="M58,12 L0,12 L0,2 C0,0.895 0.895,0 2,0 L56,0 C57.105,0 58,0.895 58,2 L58,12 Z" id="Fill-68" fill="#546A79"></path>
                <path d="M10,6 C10,4.343 8.657,3 7,3 C5.343,3 4,4.343 4,6 C4,7.657 5.343,9 7,9 C8.657,9 10,7.657 10,6" id="Fill-69" fill="#ED7161"></path>
                <path d="M20,6 C20,4.343 18.657,3 17,3 C15.343,3 14,4.343 14,6 C14,7.657 15.343,9 17,9 C18.657,9 20,7.657 20,6" id="Fill-70" fill="#ECBA16"></path>
                <path d="M30,6 C30,4.343 28.657,3 27,3 C25.343,3 24,4.343 24,6 C24,7.657 25.343,9 27,9 C28.657,9 30,7.657 30,6" id="Fill-71" fill="#42B05C"></path>
                <path d="M14,18 L6,18 C5.447,18 5,17.552 5,17 C5,16.448 5.447,16 6,16 L14,16 C14.553,16 15,16.448 15,17 C15,17.552 14.553,18 14,18" id="Fill-75" fill="#42B05C"></path>
                <path d="M14,30 L6,30 C5.447,30 5,29.552 5,29 C5,28.448 5.447,28 6,28 L14,28 C14.553,28 15,28.448 15,29 C15,29.552 14.553,30 14,30" id="Fill-76" fill="#ECBA16"></path>
                <path d="M23,24 L9,24 C8.447,24 8,23.552 8,23 C8,22.448 8.447,22 9,22 L23,22 C23.553,22 24,22.448 24,23 C24,23.552 23.553,24 23,24" id="Fill-77" fill="#DD342E"></path>
                <path d="M23,36 L6,36 C5.447,36 5,35.552 5,35 C5,34.448 5.447,34 6,34 L23,34 C23.553,34 24,34.448 24,35 C24,35.552 23.553,36 23,36" id="Fill-78" fill="#7383BF"></path>
                <path d="M20,42 L9,42 C8.447,42 8,41.552 8,41 C8,40.448 8.447,40 9,40 L20,40 C20.553,40 21,40.448 21,41 C21,41.552 20.553,42 20,42" id="Fill-79" fill="#ECBA16"></path>
                <path d="M20,54 L9,54 C8.447,54 8,53.552 8,53 C8,52.448 8.447,52 9,52 L20,52 C20.553,52 21,52.448 21,53 C21,53.552 20.553,54 20,54" id="Fill-80" fill="#7383BF"></path>
                <path d="M26,48 L12,48 C11.447,48 11,47.552 11,47 C11,46.448 11.447,46 12,46 L26,46 C26.553,46 27,46.448 27,47 C27,47.552 26.553,48 26,48" id="Fill-81" fill="#42B05C"></path>
                <path d="M54,44 L54,26 C54,24.895 53.105,24 52,24 L34,24 C32.895,24 32,24.895 32,26 L32,32 L29,35 L32,38 L32,44 C32,45.105 32.895,46 34,46 L52,46 C53.105,46 54,45.105 54,44" id="Fill-94" fill="#0F81E0"></path>
                <path d="M40,42 C38.346,42 37,40.654 37,39 L37,37.413 L35.291,35.692 C35.104,35.504 34.999,35.25 35,34.984 C35.001,34.719 35.107,34.465 35.295,34.278 L37,32.584 L37,31 C37,29.346 38.346,28 40,28 C40.553,28 41,28.448 41,29 C41,29.552 40.553,30 40,30 C39.458,30 39,30.458 39,31 L39,33 C39,33.266 38.894,33.521 38.705,33.709 L37.414,34.992 L38.709,36.295 C38.896,36.482 39,36.736 39,37 L39,39 C39,39.542 39.458,40 40,40 C40.553,40 41,40.448 41,41 C41,41.552 40.553,42 40,42" id="Fill-95" fill="#FFFFFF"></path>
                <path d="M46,42 C45.447,42 45,41.552 45,41 C45,40.448 45.447,40 46,40 C46.542,40 47,39.542 47,39 L47,37 C47,36.735 47.105,36.48 47.293,36.293 L48.586,35 L47.293,33.707 C47.105,33.52 47,33.265 47,33 L47,31 C47,30.458 46.542,30 46,30 C45.447,30 45,29.552 45,29 C45,28.448 45.447,28 46,28 C47.654,28 49,29.346 49,31 L49,32.586 L50.707,34.293 C51.098,34.684 51.098,35.316 50.707,35.707 L49,37.414 L49,39 C49,40.654 47.654,42 46,42" id="Fill-96" fill="#FFFFFF"></path>
            </g>
        </g>
    </g>
</svg>